name ./resultDataOpenSim/trcMotMarkerGrf/sub10/grf-05-02.mot
datacolumns 19
datarows 17
range 1.58800000 1.65200000
endheader

                time	     ground_force_vx	     ground_force_vy	     ground_force_vz	     ground_force_px	     ground_force_py	     ground_force_pz	   l_ground_force_vx	   l_ground_force_vy	   l_ground_force_vz	   l_ground_force_px	   l_ground_force_py	   l_ground_force_pz	     ground_torque_x	     ground_torque_y	     ground_torque_z	   l_ground_torque_x	   l_ground_torque_y	   l_ground_torque_z	
          1.58800000	        -10.91454852	        392.90284632	         -7.99548256	          0.82706521	          0.00000000	          0.06671866	          0.00000000	          0.00000000	          0.00000000	          0.00000000	          0.00000000	          0.00000000	          0.00000000	          2.50603457	          0.00000000	          0.00000000	          0.00000000	          0.00000000	
          1.59200000	         -9.93484878	        390.05532707	         -8.61537252	          0.82936669	          0.00000000	          0.06696379	          0.00000000	          0.00000000	          0.00000000	          0.00000000	          0.00000000	          0.00000000	          0.00000000	          2.50463773	          0.00000000	          0.00000000	          0.00000000	          0.00000000	
          1.59600000	         -8.45081270	        387.82581111	         -8.70709261	          0.83156375	          0.00000000	          0.06718191	          0.00000000	          0.00000000	          0.00000000	          0.00000000	          0.00000000	          0.00000000	          0.00000000	          2.45016716	          0.00000000	          0.00000000	          0.00000000	          0.00000000	
          1.60000000	         -6.80299832	        386.21813664	         -8.23710725	          0.83368844	          0.00000000	          0.06735555	          0.00000000	          0.00000000	          0.00000000	          0.00000000	          0.00000000	          0.00000000	          0.00000000	          2.35504323	          0.00000000	          0.00000000	          0.00000000	          0.00000000	
          1.60400000	         -5.38878376	        385.24404441	         -7.29834764	          0.83583164	          0.00000000	          0.06746709	          0.00000000	          0.00000000	          0.00000000	          0.00000000	          0.00000000	          0.00000000	          0.00000000	          2.23928262	          0.00000000	          0.00000000	          0.00000000	          0.00000000	
          1.60800000	         -4.53951878	        384.90161600	         -6.07758810	          0.83806684	          0.00000000	          0.06751334	          0.00000000	          0.00000000	          0.00000000	          0.00000000	          0.00000000	          0.00000000	          0.00000000	          2.12510326	          0.00000000	          0.00000000	          0.00000000	          0.00000000	
          1.61200000	         -4.42438773	        385.16383016	         -4.79968029	          0.84041066	          0.00000000	          0.06749643	          0.00000000	          0.00000000	          0.00000000	          0.00000000	          0.00000000	          0.00000000	          0.00000000	          2.03213482	          0.00000000	          0.00000000	          0.00000000	          0.00000000	
          1.61600000	         -5.00714423	        385.97904273	         -3.67067692	          0.84283873	          0.00000000	          0.06742281	          0.00000000	          0.00000000	          0.00000000	          0.00000000	          0.00000000	          0.00000000	          0.00000000	          1.97399348	          0.00000000	          0.00000000	          0.00000000	          0.00000000	
          1.62000000	         -6.05982416	        387.27306974	         -2.83686913	          0.84529366	          0.00000000	          0.06730345	          0.00000000	          0.00000000	          0.00000000	          0.00000000	          0.00000000	          0.00000000	          0.00000000	          1.95639657	          0.00000000	          0.00000000	          0.00000000	          0.00000000	
          1.62400000	         -7.22227759	        388.95965147	         -2.36600232	          0.84768888	          0.00000000	          0.06715632	          0.00000000	          0.00000000	          0.00000000	          0.00000000	          0.00000000	          0.00000000	          0.00000000	          1.97685006	          0.00000000	          0.00000000	          0.00000000	          0.00000000	
          1.62800000	         -8.09623137	        390.95803657	         -2.24629011	          0.84993103	          0.00000000	          0.06699952	          0.00000000	          0.00000000	          0.00000000	          0.00000000	          0.00000000	          0.00000000	          0.00000000	          2.02597630	          0.00000000	          0.00000000	          0.00000000	          0.00000000	
          1.63200000	         -8.35482234	        393.20699914	         -2.39675247	          0.85193815	          0.00000000	          0.06685000	          0.00000000	          0.00000000	          0.00000000	          0.00000000	          0.00000000	          0.00000000	          0.00000000	          2.09037985	          0.00000000	          0.00000000	          0.00000000	          0.00000000	
          1.63600000	         -7.83241843	        395.67765506	         -2.68719044	          0.85366988	          0.00000000	          0.06672007	          0.00000000	          0.00000000	          0.00000000	          0.00000000	          0.00000000	          0.00000000	          0.00000000	          2.15645666	          0.00000000	          0.00000000	          0.00000000	          0.00000000	
          1.64000000	         -6.56411746	        398.38437764	         -2.96781395	          0.85513178	          0.00000000	          0.06661357	          0.00000000	          0.00000000	          0.00000000	          0.00000000	          0.00000000	          0.00000000	          0.00000000	          2.21400201	          0.00000000	          0.00000000	          0.00000000	          0.00000000	
          1.64400000	         -4.76652160	        401.38035038	         -3.10286036	          0.85636429	          0.00000000	          0.06652433	          0.00000000	          0.00000000	          0.00000000	          0.00000000	          0.00000000	          0.00000000	          0.00000000	          2.25834271	          0.00000000	          0.00000000	          0.00000000	          0.00000000	
          1.64800000	         -2.77180276	        404.73106487	         -2.99940887	          0.85743334	          0.00000000	          0.06643988	          0.00000000	          0.00000000	          0.00000000	          0.00000000	          0.00000000	          0.00000000	          0.00000000	          2.29027412	          0.00000000	          0.00000000	          0.00000000	          0.00000000	
          1.65200000	         -0.93472077	        408.48154699	         -2.62805825	          0.85841271	          0.00000000	          0.06634929	          0.00000000	          0.00000000	          0.00000000	          0.00000000	          0.00000000	          0.00000000	          0.00000000	          2.31408488	          0.00000000	          0.00000000	          0.00000000	          0.00000000	
